Coordinates
version=1
nRows=16
nColumns=36
inDegrees=yes

Units are S.I. units (second, meters, Newtons, ...)
If the header above contains a line with 'inDegrees', this indicates whether rotational values are in degrees (yes) or radians (no).

endheader
time	pelvis_tilt	pelvis_list	pelvis_rotation	pelvis_tx	pelvis_ty	pelvis_tz	hip_flexion_r	hip_adduction_r	hip_rotation_r	knee_angle_r	knee_angle_r_beta	ankle_angle_r	subtalar_angle_r	mtp_angle_r	hip_flexion_l	hip_adduction_l	hip_rotation_l	knee_angle_l	knee_angle_l_beta	ankle_angle_l	subtalar_angle_l	mtp_angle_l	lumbar_extension	lumbar_bending	lumbar_rotation	arm_flex_r	arm_add_r	arm_rot_r	elbow_flex_r	pro_sup_r	arm_flex_l	arm_add_l	arm_rot_l	elbow_flex_l	pro_sup_l
      0.00000000	      1.03916318	     -1.04881515	      4.82583325	      0.81723013	      0.96615575	      0.71537031	      8.54752583	     -0.67756035	      2.11012670	     54.74582647	      0.95549492	      1.53963987	    -12.37396295	     -6.96902399	     15.40057616	     -0.31651600	      3.73388921	     27.54068665	      0.48067566	     11.41105032	     -8.98465958	     -6.96902399	    -20.62467338	     -0.21771182	      3.18463122	      1.37436422	    -14.43268450	     -1.35825867	     31.12722941	     83.05322369	      5.75850166	    -14.03450717	      5.72204418	     19.72443975	     78.82283167
      0.01666670	     -0.88081126	     -1.55504361	      3.82003504	      0.81953724	      0.95905323	      0.71486870	     14.40368922	     -0.17210866	      3.82452189	     57.53067876	      1.00409977	      1.88486226	    -13.51231986	     -7.01510915	     16.22926224	     -0.71418173	      4.89708805	     28.18120223	      0.49185477	     12.10717973	     -8.66362141	     -7.01510915	    -19.94263754	     -0.02878588	      3.78954370	      0.01141104	    -15.31142600	     -1.28589720	     32.44278259	     81.81229168	      5.21609971	    -13.93243796	      5.27277645	     20.48727169	     77.95699523
      0.03333330	     -1.57594448	     -1.12057339	      3.24062687	      0.81936154	      0.95548502	      0.71533167	     17.92154072	     -0.26810043	      5.51280776	     58.78199503	      1.02593935	      3.37961428	    -13.48174886	     -7.02401994	     15.03749956	     -0.40943423	      5.17530250	     26.86260348	      0.46884088	     13.66882066	     -7.23673353	     -7.02401994	    -19.56435280	     -0.65381557	      3.56788667	      0.06056498	    -15.26342352	     -1.19026355	     32.50335230	     81.38215101	      5.70056654	    -14.29724043	      4.84184373	     20.00878304	     77.69168169
      0.05000000	     -2.69597068	     -1.11341272	      2.67876199	      0.81948390	      0.95181763	      0.71567843	     21.30395871	     -0.31683565	      6.09012795	     58.29338549	      1.01741151	      5.22832699	    -12.90744700	     -7.04049388	     14.33781057	     -0.86194017	      4.46772648	     25.47943482	      0.44470003	     15.36138007	     -5.43136557	     -7.04049388	    -18.43957841	     -0.74934827	      3.59307039	     -0.16790716	    -15.28516269	     -1.00653357	     32.34139580	     80.57067688	      5.89907118	    -14.61625865	      4.21017296	     20.44464906	     77.08970785
      0.06666670	     -3.43702517	     -1.04246087	      2.20049734	      0.81765420	      0.94988511	      0.71660649	     24.10328314	     -0.38994802	      6.39953176	     56.63776025	      0.98851540	      6.48489103	    -12.87740190	     -7.15208199	     13.24374132	     -1.16473353	      3.57107932	     24.27385256	      0.42365865	     16.51242031	     -4.17903476	     -7.15208199	    -17.86602780	     -0.91932877	      2.50252625	      0.81482050	    -15.23561634	      1.84785282	     31.35368194	     75.28778478	      5.54381125	    -14.94800483	      1.83910276	     22.13256049	     73.78786476
      0.08333330	     -3.97441893	     -1.00072292	      1.78409558	      0.81382998	      0.94890303	      0.71724500	     26.70988843	     -0.68157449	      6.47831785	     54.16055579	      0.94528002	      7.39730224	    -13.28077155	     -7.15133923	     12.23170785	     -1.32432206	      3.29984233	     23.57220301	      0.41141255	     17.21339757	     -4.25312058	     -7.15133923	    -17.84989154	     -0.89235731	      2.13137306	      1.08546317	    -15.06318974	      1.88839924	     31.67930823	     75.17693622	      6.59999748	    -15.16433506	      1.86620101	     22.81228658	     73.72528555
      0.10000000	     -4.68103931	     -1.13604213	      1.01522111	      0.81039498	      0.94866821	      0.71739308	     29.46473909	     -0.80707355	      6.69652511	     51.07490370	      0.89142523	      8.21805423	    -13.00802000	     -7.17088793	     11.60368902	     -1.79579171	      2.46586655	     23.20506882	      0.40500485	     18.21724358	     -3.38100247	     -7.17088793	    -17.83168747	     -0.71078853	      2.23779935	      1.22375404	    -15.01067400	      2.13627943	     32.21627108	     74.67227635	      7.27719584	    -15.50199259	      2.76697524	     25.27255868	     73.72853534
      0.11666670	     -5.26173980	     -1.11520763	      0.25463161	      0.80849921	      0.94890500	      0.71676850	     31.87116813	     -1.23806835	      6.94153597	     47.52806333	      0.82952119	      8.70406137	    -12.64520846	     -7.18025567	     11.13105599	     -1.89050832	      2.38504385	     23.18123244	      0.40458883	     18.97819597	     -3.63431243	     -7.18025567	    -17.97734714	     -0.64199931	      1.90384650	      1.61398307	    -14.77847994	      2.20739018	     32.96188321	     74.37204414	      8.30674352	    -15.65391610	      2.86087470	     26.43927031	     73.50425302
      0.13333330	     -5.35670947	     -1.61154994	     -0.53162849	      0.80799781	      0.94983084	      0.71659243	     33.21814882	     -1.28709142	      6.78879361	     43.26567792	      0.75512853	      8.90489043	    -11.68526212	     -7.18017477	     10.21600304	     -2.43379794	      2.50832519	     23.22235644	      0.40530658	     19.71988254	     -3.97042188	     -7.18017477	    -18.41142782	      0.08953117	      1.88780553	      2.20950298	    -14.87131465	      2.49102855	     32.82787625	     74.51601975	      9.55451546	    -15.54584987	      3.45493544	     27.14248515	     73.82863272
      0.15000000	     -5.02523526	     -1.94436354	     -1.11626547	      0.80626765	      0.95059525	      0.71809996	     33.79167988	     -1.56458416	      6.50006471	     38.74234327	      0.67618145	      9.25022859	    -10.21657243	     -7.20085246	      8.81837587	     -2.70094457	      2.80221922	     23.04625702	      0.40223307	     20.21628150	     -4.42889088	     -7.20085246	    -19.47315155	      0.63116988	      1.77249307	      2.87188198	    -14.88139451	      3.32775158	     32.91364112	     74.65144536	     11.07789163	    -15.81411260	      5.06122579	     28.08887325	     74.52243976
      0.16666670	     -4.78290451	     -2.19005308	     -1.64495913	      0.80264950	      0.94997516	      0.72133256	     34.33176786	     -1.77581097	      6.25381994	     34.23475451	      0.59750918	      9.36600850	     -8.72412274	     -7.21719488	      7.48673041	     -2.90098488	      3.00276054	     22.72248456	      0.39658217	     20.36072701	     -5.08149891	     -7.21719488	    -20.31121238	      1.01170674	      1.54689550	      3.49887672	    -14.72351194	      3.61097358	     33.26735823	     74.35267898	     12.67076818	    -16.13974545	      6.14988494	     29.06594096	     74.67855496
      0.18333330	     -4.34503421	     -2.41434818	     -2.16506293	      0.79914407	      0.94740342	      0.72459913	     34.66476360	     -1.82254952	      6.09499148	     29.99072916	      0.52343697	      9.51761993	     -7.19164863	     -7.26753424	      5.80766158	     -3.17369296	      2.97256761	     22.10662028	      0.38583331	     20.42824295	     -5.48602995	     -7.26753424	    -21.28228697	      1.36979777	      1.78527741	      3.69707417	    -14.55435154	      3.03865050	     34.15588792	     75.15387581	     14.76878859	    -16.60057538	      8.66968236	     29.66377366	     76.51835486
      0.20000000	     -4.12938932	     -2.45216013	     -2.70538290	      0.79794747	      0.94275802	      0.72601389	     35.31906439	     -1.89660729	      6.17305084	     26.22042210	      0.45763270	      9.97712984	     -5.47584077	     -7.25400360	      4.24356484	     -3.19760333	      3.34782660	     21.32019465	      0.37210759	     19.98654631	     -6.78901513	     -7.25400360	    -21.75928144	      1.75374550	      1.22788509	      4.50715124	    -14.10318562	      2.64768540	     34.37876252	     75.28332569	     15.89383732	    -16.94214620	      8.49077059	     30.21569080	     76.75748900
      0.21666670	     -3.06084356	     -2.69215291	     -3.21301459	      0.79817458	      0.93906112	      0.72591287	     34.78150849	     -1.69355390	      6.46998736	     22.43943535	      0.39164203	     10.35006325	     -4.12097312	     -7.24512961	      1.59381713	     -3.52489311	      3.18031402	     20.42825592	      0.35654033	     20.48667615	     -6.05070993	     -7.24512961	    -23.41098215	      2.25320863	      1.18238097	      5.18874278	    -13.96693653	      2.39792475	     35.05023342	     75.81148924	     17.09874575	    -17.32690612	      8.59722629	     31.72327144	     77.29281836
      0.23333330	     -2.59408759	     -2.73941947	     -3.63912065	      0.79694456	      0.93528291	      0.72621426	     34.83087496	     -1.58586042	      6.97928599	     19.23997366	      0.33580089	     10.83709093	     -2.71042018	     -7.24625150	     -0.40442403	     -3.58718775	      3.40645364	     19.66258862	      0.34317691	     20.68816927	     -6.15632238	     -7.24625150	    -24.13759100	      2.66481838	      0.88618247	      5.97029048	    -13.80220037	      2.20761149	     35.23071084	     75.94551194	     18.23078424	    -17.60008466	      8.80132483	     32.46745346	     77.31788538
      0.25000000	     -2.49763249	     -2.74468399	     -3.84233028	      0.79190163	      0.93303396	      0.72901804	     35.17198452	     -1.42406960	      7.46706737	     16.66440978	      0.29084882	     10.83465526	     -1.45225794	     -7.25341514	     -1.82995695	     -3.67958436	      3.59680546	     19.21750720	      0.33540877	     21.03145664	     -6.19907188	     -7.25341514	    -24.51715841	      3.01963641	      0.46870882	      6.83768668	    -13.64918119	      2.12609814	     35.24709932	     76.01781291	     19.68288891	    -17.84428590	      9.17299952	     33.09514617	     77.42542364
